<?xml version="1.0" standalone="no"?>
<!DOCTYPE svg PUBLIC "-//W3C//DTD SVG 20010904//EN"
 "http://www.w3.org/TR/2001/REC-SVG-20010904/DTD/svg10.dtd">
<svg version="1.0" xmlns="http://www.w3.org/2000/svg"
 width="260.000000pt" height="260.000000pt" viewBox="0 0 260.000000 260.000000"
 preserveAspectRatio="xMidYMid meet">
<metadata>
Created by potrace 1.11, written by Peter Selinger 2001-2013
</metadata>
<g transform="translate(0.000000,260.000000) scale(0.100000,-0.100000)"
fill="#000000" stroke="none">
<path d="M1170 2594 c-227 -29 -420 -100 -602 -221 -96 -63 -272 -239 -336
-335 -105 -156 -182 -345 -213 -518 -20 -111 -17 -355 5 -465 108 -524 506
-922 1031 -1031 133 -27 374 -25 515 5 448 96 819 428 964 861 48 144 61 233
61 410 0 177 -14 266 -61 409 -32 96 -100 232 -166 329 -64 96 -240 272 -336
335 -144 96 -320 170 -482 202 -76 15 -316 27 -380 19z m284 -619 c211 -37
356 -184 375 -380 5 -54 4 -78 -4 -81 -6 -3 -56 -3 -111 -2 l-99 3 -6 50 c-19
153 -117 237 -278 237 -113 0 -185 -36 -241 -120 -59 -90 -70 -149 -70 -391 0
-119 5 -235 10 -259 27 -114 107 -216 195 -245 108 -37 242 -13 311 57 44 43
74 118 74 183 l0 33 111 0 112 0 -5 -74 c-12 -182 -144 -330 -343 -381 -126
-32 -315 -13 -419 43 -79 42 -177 145 -215 225 -51 106 -61 175 -61 418 0 183
3 228 20 293 76 296 325 448 644 391z"/>
</g>
</svg>
